# xmcd
#
# Track frame offsets: 
#        150
#        16974
#        48381
#        72286
#        114621
#        132100
#        168776
#        188183
#        193723
#        201980
#        205302
#        211833
#        213847
#        222170
#        227746
#        231813
#        239642
#        259073
#        270991
#        274948
#        285253
#        297284
#
# Disc length: 4317 seconds
#
# Revision: 2
# Processed by: cddbd v1.5.2PL0 Copyright (c) Steve Scherf et al.
# Submitted via: ExactAudioCopy v1.3
#
DISCID=4f10db16
DTITLE=Royal Concertgebouw Orchestra Amsterdam - RCO 125 anniversary e
DTITLE=dition - The Radio Legacy, CD 005 [1935-1950]
DYEAR=2013
DGENRE=Classical
TTITLE0=Gian Francesco Malipiero: Concierto para violonchelo y orquest
TTITLE0=a (1937) - I. Allegro moderato
TTITLE1=Gian Francesco Malipiero: Concierto para violonchelo y orquest
TTITLE1=a (1937) - II. Lento
TTITLE2=Gian Francesco Malipiero: Concierto para violonchelo y orquest
TTITLE2=a (1937) - III. Allegro - Lento - Allegro
TTITLE3=Max Reger: Vier Tondichtungen nach Arnold Böcklin (1913), op. 
TTITLE3=128 - I. Der geigende Eremit. Molto sostenuto
TTITLE4=Max Reger: Vier Tondichtungen nach Arnold Böcklin (1913), op. 
TTITLE4=128 - II. Im Spiel der Wellen. Vivace
TTITLE5=Max Reger: Vier Tondichtungen nach Arnold Böcklin (1913), op. 
TTITLE5=128 - III. Die Toteninsel. Molto sostenuto
TTITLE6=Max Reger: Vier Tondichtungen nach Arnold Böcklin (1913), op. 
TTITLE6=128 - IV. Bacchanal. Vivace
TTITLE7=Edward Elgar: Enigma variations (1989-1899), op. 36 - I. Tema.
TTITLE7=Enigma. Andante
TTITLE8=Edward Elgar: Enigma variations (1989-1899), op. 36 - II. Vari
TTITLE8=ación I. L'istesso tempo. 'C.A.E.'
TTITLE9=Edward Elgar: Enigma variations (1989-1899), op. 36 - III. Var
TTITLE9=iación II. Allegro. 'H.D.S-P.'
TTITLE10=Edward Elgar: Enigma variations (1989-1899), op. 36 - IV. Var
TTITLE10=iación III. Allegretto. 'R.B.T.'
TTITLE11=Edward Elgar: Enigma variations (1989-1899), op. 36 - V. Vari
TTITLE11=ación IV. Allegro di molto. 'W.M.B.'
TTITLE12=Edward Elgar: Enigma variations (1989-1899), op. 36 - VI. Var
TTITLE12=iación V. Moderato. 'R.P.A.'
TTITLE13=Edward Elgar: Enigma variations (1989-1899), op. 36 - VII. Va
TTITLE13=riación VI. Andantino. 'Ysobel'
TTITLE14=Edward Elgar: Enigma variations (1989-1899), op. 36 - VIII. V
TTITLE14=ariación VII. Presto. 'Troyte'
TTITLE15=Edward Elgar: Enigma variations (1989-1899), op. 36 - IX. Var
TTITLE15=iación VIII. Allegretto. 'W.N.'
TTITLE16=Edward Elgar: Enigma variations (1989-1899), op. 36 - X. Vari
TTITLE16=ación IX. Adagio. 'Nimrod'
TTITLE17=Edward Elgar: Enigma variations (1989-1899), op. 36 - XI. Var
TTITLE17=iación X. Intermezzo: Allegretto. 'Dorabella'
TTITLE18=Edward Elgar: Enigma variations (1989-1899), op. 36 - XII. Va
TTITLE18=riación XI. Allegro di molto. 'G.R.S.'
TTITLE19=Edward Elgar: Enigma variations (1989-1899), op. 36 - XIII. V
TTITLE19=ariación XII. Andante. 'B.G.N.'
TTITLE20=Edward Elgar: Enigma variations (1989-1899), op. 36 - XIV. Va
TTITLE20=riación XIII. Romanza: Moderato. ' * * * '
TTITLE21=Edward Elgar: Enigma variations (1989-1899), op. 36 - XV. Var
TTITLE21=iación XIV. Finale: Allegro. 'E.D.U.'
EXTD=
EXTT0=
EXTT1=
EXTT2=
EXTT3=
EXTT4=
EXTT5=
EXTT6=
EXTT7=
EXTT8=
EXTT9=
EXTT10=
EXTT11=
EXTT12=
EXTT13=
EXTT14=
EXTT15=
EXTT16=
EXTT17=
EXTT18=
EXTT19=
EXTT20=
EXTT21=
PLAYORDER=
